<svg xmlns="http://www.w3.org/2000/svg" xmlns:xlink="http://www.w3.org/1999/xlink" width="500" zoomAndPan="magnify" viewBox="0 0 375 374.999991" height="500" preserveAspectRatio="xMidYMid meet" version="1.0"><defs><g/><clipPath id="id1"><path d="M 53 137 L 240 137 L 240 315 L 53 315 Z M 53 137 " clip-rule="nonzero"/></clipPath><clipPath id="id2"><path d="M 54.40625 132.390625 L 252.308594 138.625 L 246.636719 318.535156 L 48.734375 312.300781 Z M 54.40625 132.390625 " clip-rule="nonzero"/></clipPath><clipPath id="id3"><path d="M 54.40625 132.390625 L 252.308594 138.625 L 246.636719 318.535156 L 48.734375 312.300781 Z M 54.40625 132.390625 " clip-rule="nonzero"/></clipPath></defs><rect x="-37.5" width="450" fill="#ffffff" y="-37.499999" height="449.999989" fill-opacity="1"/><rect x="-37.5" width="450" fill="#000000" y="-37.499999" height="449.999989" fill-opacity="1"/><rect x="-37.5" width="450" fill="#ffffff" y="-37.499999" height="449.999989" fill-opacity="1"/><rect x="-37.5" width="450" fill="#000000" y="-37.499999" height="449.999989" fill-opacity="1"/><g clip-path="url(#id1)"><g clip-path="url(#id2)"><g clip-path="url(#id3)"><path fill="#ffffff" d="M 83.890625 218.339844 C 70.921875 218.648438 53.496094 212.480469 55.519531 199.53125 C 56.816406 191.25 65.710938 187.890625 74.167969 188.042969 C 89.5625 188.320312 103.578125 198.039062 116.238281 207.207031 C 106.539062 213.109375 95.207031 218.070312 83.890625 218.339844 Z M 130.917969 214.898438 C 127.015625 212.058594 123.15625 209.152344 119.261719 206.300781 C 122.667969 204.125 126.003906 201.796875 129.316406 199.410156 C 134.617188 201.949219 140.304688 203.890625 146.105469 205.277344 C 140.574219 208.21875 135.371094 211.546875 130.917969 214.898438 Z M 163.574219 266.5625 C 156.292969 273.753906 142.457031 275.453125 132.296875 272.980469 C 136.960938 261.941406 147.816406 251.769531 159.746094 252.789062 C 168.128906 253.503906 169.679688 260.535156 163.574219 266.5625 Z M 176.347656 205.511719 C 168.1875 206.1875 159.261719 205.734375 150.480469 204.015625 C 167.023438 195.988281 187.386719 190.300781 205.996094 192.683594 C 200.632812 200.96875 186.203125 204.695312 176.347656 205.511719 Z M 149.101562 203.734375 C 142.984375 202.445312 136.957031 200.53125 131.332031 197.953125 C 144.84375 188.128906 158.121094 177.726562 174.382812 173.621094 C 184.417969 171.085938 205.035156 170.160156 207.6875 184.148438 C 208.28125 187.28125 207.632812 190.019531 206.183594 192.390625 C 187.125 190.136719 166.710938 194.984375 149.101562 203.734375 Z M 131.574219 215.375 C 136.492188 211.65625 141.964844 208.375 147.378906 205.574219 C 160.683594 208.5625 174.101562 208.566406 184.203125 206.570312 C 191.738281 205.085938 203.652344 200.738281 207.691406 192.921875 C 218.4375 194.59375 230.1875 199.277344 235.351562 208.898438 C 249.261719 234.816406 199.554688 264.652344 131.574219 215.375 Z M 237.34375 226.957031 C 245.234375 209.246094 226.5625 195.238281 207.851562 192.605469 C 209 190.234375 209.421875 187.546875 208.789062 184.535156 C 205.828125 170.410156 185.921875 170.425781 175.230469 172.835938 C 158.167969 176.683594 144.460938 187.429688 130.476562 197.554688 C 121.914062 193.5 114.332031 187.871094 108.84375 180.507812 C 93.375 159.746094 111.742188 136.332031 133.515625 138.242188 C 133.714844 138.132812 133.695312 138.089844 133.664062 137.921875 L 133.5625 137.832031 C 105.28125 133.992188 82.222656 176.132812 128.472656 199 C 125.203125 201.34375 121.90625 203.632812 118.542969 205.773438 C 104.652344 195.640625 88.246094 184.457031 71.363281 185.519531 C 60.582031 186.199219 54.972656 192.117188 54.054688 198.335938 C 51.867188 213.144531 70.9375 218.632812 81.945312 218.914062 C 94.285156 219.230469 106.386719 214.1875 116.964844 207.734375 C 120.949219 210.628906 124.894531 213.578125 128.878906 216.476562 C 100.128906 239.40625 105.410156 267.230469 130.441406 274.480469 C 122.171875 295.878906 135.355469 315.023438 153.019531 314.5 C 167.214844 314.082031 171.660156 301.871094 169.769531 300.960938 C 168.824219 301.011719 168.820312 302.417969 168.625 302.957031 C 166.34375 309.21875 159.4375 312.347656 152.613281 312.328125 C 136.28125 312.285156 124.410156 294.566406 131.585938 274.792969 C 136.320312 276.011719 141.339844 276.363281 146.128906 275.824219 C 170.609375 273.066406 173.691406 254.988281 161.332031 252.59375 C 148.910156 250.191406 136.445312 260.851562 131.183594 272.691406 C 108.175781 266.316406 101.777344 239.390625 129.546875 216.960938 C 148.777344 230.910156 166.683594 241.464844 193.03125 243.914062 C 209.824219 245.476562 230.484375 242.351562 237.34375 226.957031 Z M 237.34375 226.957031 " fill-opacity="1" fill-rule="nonzero"/></g></g></g><g fill="#ffffff" fill-opacity="1"><g transform="translate(126.237551, 168.696903)"><g><path d="M -0.765625 0 L 4.316406 0 L 4.316406 -0.585938 C 2.789062 -0.898438 2.609375 -2.382812 3.777344 -5.304688 L 6.429688 -11.871094 L 19.109375 -11.871094 L 21.851562 -5.261719 C 23.289062 -1.886719 23.648438 -0.988281 22.257812 -0.585938 L 22.257812 0 L 29.226562 0 L 29.226562 -0.585938 C 28.28125 -0.988281 27.203125 -1.886719 25.808594 -5.261719 L 14.746094 -31.832031 L 11.375 -30.304688 L 11.78125 -29.359375 C 12.140625 -28.640625 12.183594 -28.054688 11.871094 -27.246094 L 3.011719 -5.304688 C 1.617188 -1.886719 0.496094 -0.988281 -0.765625 -0.585938 Z M 6.699219 -12.542969 L 12.679688 -27.335938 L 18.839844 -12.542969 Z M 6.699219 -12.542969 "/></g></g></g><g fill="#ffffff" fill-opacity="1"><g transform="translate(155.05249, 168.696903)"><g><path d="M 1.4375 0 L 8.542969 0 L 8.542969 -0.585938 C 7.148438 -0.988281 6.746094 -2.023438 6.746094 -5.710938 L 6.746094 -18.074219 C 9.171875 -19.917969 11.511719 -21.3125 14.074219 -21.3125 C 17.535156 -21.3125 19.199219 -18.972656 19.199219 -14.523438 L 19.199219 -5.710938 C 19.199219 -2.023438 18.75 -0.988281 17.402344 -0.585938 L 17.402344 0 L 24.503906 0 L 24.503906 -0.585938 C 23.109375 -0.988281 22.707031 -2.023438 22.707031 -5.710938 L 22.707031 -15.332031 C 22.707031 -16.320312 22.617188 -17.21875 22.4375 -17.984375 C 24.910156 -19.917969 27.246094 -21.3125 29.808594 -21.3125 C 33.316406 -21.3125 34.9375 -18.972656 34.9375 -14.523438 L 34.9375 -5.710938 C 34.9375 -2.023438 34.53125 -0.988281 33.136719 -0.585938 L 33.136719 0 L 40.242188 0 L 40.242188 -0.585938 C 38.890625 -0.988281 38.441406 -2.023438 38.441406 -5.710938 L 38.441406 -15.332031 C 38.441406 -20.414062 36.195312 -22.796875 31.832031 -22.796875 C 28.460938 -22.796875 25 -20.726562 22.300781 -18.570312 C 21.492188 -21.445312 19.378906 -22.796875 16.050781 -22.796875 C 12.8125 -22.796875 9.441406 -20.863281 6.746094 -18.703125 L 6.746094 -22.527344 L 6.339844 -22.839844 L 1.4375 -20.683594 L 1.4375 -20.1875 C 2.652344 -19.648438 3.238281 -19.199219 3.238281 -16.050781 L 3.238281 -5.710938 C 3.238281 -2.023438 2.832031 -0.988281 1.4375 -0.585938 Z M 1.4375 0 "/></g></g></g><g fill="#ffffff" fill-opacity="1"><g transform="translate(196.229531, 168.696903)"><g><path d="M 18.839844 0 L 22.75 0 L 22.75 -0.585938 C 21.355469 -0.988281 20.953125 -2.023438 20.953125 -5.710938 L 20.953125 -14.703125 C 20.953125 -19.785156 18.433594 -22.796875 12.996094 -22.796875 C 9.082031 -22.796875 5.800781 -20.863281 3.238281 -17.671875 L 3.640625 -17.3125 C 5.890625 -20.054688 8.496094 -21.3125 11.195312 -21.3125 C 15.015625 -21.3125 17.265625 -19.289062 17.492188 -14.925781 L 11.644531 -13.355469 C 6.292969 -11.871094 1.574219 -10.117188 1.574219 -5.441406 C 1.574219 -1.574219 4.542969 0.449219 7.867188 0.449219 C 12.320312 0.449219 16.097656 -3.910156 17.492188 -9.441406 L 17.492188 -1.347656 C 17.492188 -0.496094 17.941406 0 18.839844 0 Z M 4.945312 -6.699219 C 4.902344 -10.386719 8.496094 -11.871094 11.824219 -12.8125 L 17.492188 -14.34375 L 17.492188 -12.996094 C 17.445312 -8.273438 14.34375 -2.203125 9.53125 -2.203125 C 6.96875 -2.203125 4.945312 -3.777344 4.945312 -6.699219 Z M 4.945312 -6.699219 "/></g></g></g><g fill="#ffffff" fill-opacity="1"><g transform="translate(220.054675, 168.696903)"><g><path d="M 1.4375 0 L 8.542969 0 L 8.542969 -0.585938 C 7.195312 -0.988281 6.746094 -2.023438 6.746094 -5.710938 L 6.746094 -17.941406 C 9.039062 -19.828125 11.464844 -21.3125 13.9375 -21.3125 C 17.894531 -21.3125 19.875 -18.75 19.875 -14.074219 L 19.875 -5.710938 C 19.875 -2.023438 19.46875 -0.988281 18.074219 -0.585938 L 18.074219 0 L 25.179688 0 L 25.179688 -0.585938 C 23.785156 -0.988281 23.378906 -2.023438 23.378906 -5.710938 L 23.378906 -14.972656 C 23.378906 -20.234375 20.683594 -22.796875 16.277344 -22.796875 C 12.8125 -22.796875 9.351562 -20.773438 6.746094 -18.660156 L 6.746094 -22.527344 L 6.382812 -22.839844 L 1.4375 -20.683594 L 1.4375 -20.1875 C 2.699219 -19.648438 3.238281 -19.199219 3.238281 -16.050781 L 3.238281 -5.710938 C 3.238281 -2.023438 2.832031 -0.988281 1.4375 -0.585938 Z M 1.4375 0 "/></g></g></g><g fill="#ffffff" fill-opacity="1"><g transform="translate(246.307294, 168.696903)"><g><path d="M 11.554688 0.496094 C 14.746094 0.539062 17.535156 -1.617188 19.738281 -3.910156 L 19.738281 -1.347656 C 19.738281 -0.496094 20.234375 0 21.085938 0 L 25.042969 0 L 25.042969 -0.585938 C 23.648438 -0.988281 23.246094 -2.023438 23.246094 -5.710938 L 23.246094 -36.015625 L 22.886719 -36.328125 L 17.941406 -34.171875 L 17.941406 -33.675781 C 19.152344 -33.136719 19.738281 -32.6875 19.738281 -29.539062 L 19.738281 -20.996094 C 18.164062 -21.988281 16.097656 -22.75 13.625 -22.75 C 5.890625 -22.707031 1.617188 -16.949219 1.617188 -10.699219 C 1.617188 -4.363281 5.980469 0.449219 11.554688 0.496094 Z M 4.992188 -13.398438 C 4.992188 -18.164062 7.464844 -21.898438 12.230469 -21.898438 C 16.007812 -21.898438 19.332031 -18.660156 19.738281 -15.738281 L 19.738281 -4.722656 C 17.984375 -2.921875 15.917969 -1.707031 13.578125 -1.707031 C 7.464844 -1.707031 4.992188 -8.136719 4.992188 -13.398438 Z M 4.992188 -13.398438 "/></g></g></g><g fill="#ffffff" fill-opacity="1"><g transform="translate(272.380092, 168.696903)"><g><path d="M 18.839844 0 L 22.75 0 L 22.75 -0.585938 C 21.355469 -0.988281 20.953125 -2.023438 20.953125 -5.710938 L 20.953125 -14.703125 C 20.953125 -19.785156 18.433594 -22.796875 12.996094 -22.796875 C 9.082031 -22.796875 5.800781 -20.863281 3.238281 -17.671875 L 3.640625 -17.3125 C 5.890625 -20.054688 8.496094 -21.3125 11.195312 -21.3125 C 15.015625 -21.3125 17.265625 -19.289062 17.492188 -14.925781 L 11.644531 -13.355469 C 6.292969 -11.871094 1.574219 -10.117188 1.574219 -5.441406 C 1.574219 -1.574219 4.542969 0.449219 7.867188 0.449219 C 12.320312 0.449219 16.097656 -3.910156 17.492188 -9.441406 L 17.492188 -1.347656 C 17.492188 -0.496094 17.941406 0 18.839844 0 Z M 4.945312 -6.699219 C 4.902344 -10.386719 8.496094 -11.871094 11.824219 -12.8125 L 17.492188 -14.34375 L 17.492188 -12.996094 C 17.445312 -8.273438 14.34375 -2.203125 9.53125 -2.203125 C 6.96875 -2.203125 4.945312 -3.777344 4.945312 -6.699219 Z M 4.945312 -6.699219 "/></g></g></g></svg>