<svg xmlns="http://www.w3.org/2000/svg" xmlns:xlink="http://www.w3.org/1999/xlink" width="500" zoomAndPan="magnify" viewBox="0 0 375 374.999991" height="500" preserveAspectRatio="xMidYMid meet" version="1.0"><defs><g/><clipPath id="id1"><path d="M 153 175.695312 L 183.152344 175.695312 L 183.152344 213.195312 L 153 213.195312 Z M 153 175.695312 " clip-rule="nonzero"/></clipPath><clipPath id="id2"><path d="M 183.003906 149.765625 L 204 149.765625 L 204 175.796875 L 183.003906 175.796875 Z M 183.003906 149.765625 " clip-rule="nonzero"/></clipPath><clipPath id="id3"><path d="M 147.046875 142.394531 L 228.046875 142.394531 L 228.046875 245.863281 L 147.046875 245.863281 Z M 147.046875 142.394531 " clip-rule="nonzero"/></clipPath></defs><rect x="-37.5" width="450" fill="#ffffff" y="-37.499999" height="449.999989" fill-opacity="1"/><rect x="-37.5" width="450" fill="#000000" y="-37.499999" height="449.999989" fill-opacity="1"/><rect x="-37.5" width="450" fill="#ffffff" y="-37.499999" height="449.999989" fill-opacity="1"/><rect x="-37.5" width="450" fill="#000000" y="-37.499999" height="449.999989" fill-opacity="1"/><path fill="#ffffff" d="M 128.25 254.675781 C 128.457031 254.675781 128.632812 254.75 128.78125 254.894531 C 128.925781 255.042969 129 255.21875 129 255.425781 C 129 255.632812 128.925781 255.808594 128.78125 255.957031 C 128.632812 256.101562 128.457031 256.175781 128.25 256.175781 C 128.042969 256.175781 127.867188 256.101562 127.71875 255.957031 C 127.574219 255.808594 127.5 255.632812 127.5 255.425781 C 127.5 255.21875 127.574219 255.042969 127.71875 254.894531 C 127.867188 254.75 128.042969 254.675781 128.25 254.675781 Z M 131.25 254.675781 C 131.457031 254.675781 131.632812 254.75 131.78125 254.894531 C 131.925781 255.042969 132 255.21875 132 255.425781 C 132 255.632812 131.925781 255.808594 131.78125 255.957031 C 131.632812 256.101562 131.457031 256.175781 131.25 256.175781 C 131.042969 256.175781 130.867188 256.101562 130.71875 255.957031 C 130.574219 255.808594 130.5 255.632812 130.5 255.425781 C 130.5 255.21875 130.574219 255.042969 130.71875 254.894531 C 130.867188 254.75 131.042969 254.675781 131.25 254.675781 Z M 134.25 254.675781 C 134.457031 254.675781 134.632812 254.75 134.78125 254.894531 C 134.925781 255.042969 135 255.21875 135 255.425781 C 135 255.632812 134.925781 255.808594 134.78125 255.957031 C 134.632812 256.101562 134.457031 256.175781 134.25 256.175781 C 134.042969 256.175781 133.867188 256.101562 133.71875 255.957031 C 133.574219 255.808594 133.5 255.632812 133.5 255.425781 C 133.5 255.21875 133.574219 255.042969 133.71875 254.894531 C 133.867188 254.75 134.042969 254.675781 134.25 254.675781 Z M 137.25 254.675781 C 137.457031 254.675781 137.632812 254.75 137.78125 254.894531 C 137.925781 255.042969 138 255.21875 138 255.425781 C 138 255.632812 137.925781 255.808594 137.78125 255.957031 C 137.632812 256.101562 137.457031 256.175781 137.25 256.175781 C 137.042969 256.175781 136.867188 256.101562 136.71875 255.957031 C 136.574219 255.808594 136.5 255.632812 136.5 255.425781 C 136.5 255.21875 136.574219 255.042969 136.71875 254.894531 C 136.867188 254.75 137.042969 254.675781 137.25 254.675781 Z M 140.25 254.675781 C 140.457031 254.675781 140.632812 254.75 140.78125 254.894531 C 140.925781 255.042969 141 255.21875 141 255.425781 C 141 255.632812 140.925781 255.808594 140.78125 255.957031 C 140.632812 256.101562 140.457031 256.175781 140.25 256.175781 C 140.042969 256.175781 139.867188 256.101562 139.71875 255.957031 C 139.574219 255.808594 139.5 255.632812 139.5 255.425781 C 139.5 255.21875 139.574219 255.042969 139.71875 254.894531 C 139.867188 254.75 140.042969 254.675781 140.25 254.675781 Z M 143.25 254.675781 C 143.457031 254.675781 143.636719 254.75 143.78125 254.894531 C 143.925781 255.042969 144 255.21875 144 255.425781 C 144 255.632812 143.925781 255.808594 143.78125 255.957031 C 143.636719 256.101562 143.457031 256.175781 143.25 256.175781 C 143.042969 256.175781 142.867188 256.101562 142.71875 255.957031 C 142.574219 255.808594 142.5 255.632812 142.5 255.425781 C 142.5 255.21875 142.574219 255.042969 142.71875 254.894531 C 142.867188 254.75 143.042969 254.675781 143.25 254.675781 Z M 146.25 254.675781 C 146.457031 254.675781 146.636719 254.75 146.78125 254.894531 C 146.929688 255.042969 147 255.21875 147 255.425781 C 147 255.632812 146.929688 255.808594 146.78125 255.957031 C 146.636719 256.101562 146.457031 256.175781 146.25 256.175781 C 146.042969 256.175781 145.867188 256.101562 145.71875 255.957031 C 145.574219 255.808594 145.5 255.632812 145.5 255.425781 C 145.5 255.21875 145.574219 255.042969 145.71875 254.894531 C 145.867188 254.75 146.042969 254.675781 146.25 254.675781 Z M 149.25 254.675781 C 149.457031 254.675781 149.636719 254.75 149.78125 254.894531 C 149.929688 255.042969 150 255.21875 150 255.425781 C 150 255.632812 149.929688 255.808594 149.78125 255.957031 C 149.636719 256.101562 149.457031 256.175781 149.25 256.175781 C 149.042969 256.175781 148.867188 256.101562 148.722656 255.957031 C 148.574219 255.808594 148.5 255.632812 148.5 255.425781 C 148.5 255.21875 148.574219 255.042969 148.722656 254.894531 C 148.867188 254.75 149.042969 254.675781 149.25 254.675781 Z M 152.25 254.675781 C 152.457031 254.675781 152.636719 254.75 152.78125 254.894531 C 152.929688 255.042969 153 255.21875 153 255.425781 C 153 255.632812 152.929688 255.808594 152.78125 255.957031 C 152.636719 256.101562 152.457031 256.175781 152.25 256.175781 C 152.042969 256.175781 151.867188 256.101562 151.722656 255.957031 C 151.574219 255.808594 151.5 255.632812 151.5 255.425781 C 151.5 255.21875 151.574219 255.042969 151.722656 254.894531 C 151.867188 254.75 152.042969 254.675781 152.25 254.675781 Z M 155.25 254.675781 C 155.457031 254.675781 155.636719 254.75 155.78125 254.894531 C 155.929688 255.042969 156 255.21875 156 255.425781 C 156 255.632812 155.929688 255.808594 155.78125 255.957031 C 155.636719 256.101562 155.457031 256.175781 155.25 256.175781 C 155.042969 256.175781 154.867188 256.101562 154.722656 255.957031 C 154.574219 255.808594 154.5 255.632812 154.5 255.425781 C 154.5 255.21875 154.574219 255.042969 154.722656 254.894531 C 154.867188 254.75 155.042969 254.675781 155.25 254.675781 Z M 158.25 254.675781 C 158.457031 254.675781 158.636719 254.75 158.78125 254.894531 C 158.929688 255.042969 159 255.21875 159 255.425781 C 159 255.632812 158.929688 255.808594 158.78125 255.957031 C 158.636719 256.101562 158.457031 256.175781 158.25 256.175781 C 158.042969 256.175781 157.867188 256.101562 157.722656 255.957031 C 157.574219 255.808594 157.5 255.632812 157.5 255.425781 C 157.5 255.21875 157.574219 255.042969 157.722656 254.894531 C 157.867188 254.75 158.042969 254.675781 158.25 254.675781 Z M 161.25 254.675781 C 161.457031 254.675781 161.636719 254.75 161.78125 254.894531 C 161.929688 255.042969 162 255.21875 162 255.425781 C 162 255.632812 161.929688 255.808594 161.78125 255.957031 C 161.636719 256.101562 161.457031 256.175781 161.25 256.175781 C 161.042969 256.175781 160.867188 256.101562 160.722656 255.957031 C 160.574219 255.808594 160.5 255.632812 160.5 255.425781 C 160.5 255.21875 160.574219 255.042969 160.722656 254.894531 C 160.867188 254.75 161.042969 254.675781 161.25 254.675781 Z M 164.25 254.675781 C 164.460938 254.675781 164.636719 254.75 164.78125 254.894531 C 164.929688 255.042969 165 255.21875 165 255.425781 C 165 255.632812 164.929688 255.808594 164.78125 255.957031 C 164.636719 256.101562 164.460938 256.175781 164.25 256.175781 C 164.042969 256.175781 163.867188 256.101562 163.722656 255.957031 C 163.574219 255.808594 163.5 255.632812 163.5 255.425781 C 163.5 255.21875 163.574219 255.042969 163.722656 254.894531 C 163.867188 254.75 164.042969 254.675781 164.25 254.675781 Z M 167.25 254.675781 L 167.253906 254.675781 C 167.460938 254.675781 167.636719 254.75 167.78125 254.894531 C 167.929688 255.042969 168.003906 255.21875 168.003906 255.425781 C 168.003906 255.632812 167.929688 255.808594 167.78125 255.957031 C 167.636719 256.101562 167.460938 256.175781 167.253906 256.175781 L 167.25 256.175781 C 167.042969 256.175781 166.867188 256.101562 166.722656 255.957031 C 166.574219 255.808594 166.5 255.632812 166.5 255.425781 C 166.5 255.21875 166.574219 255.042969 166.722656 254.894531 C 166.867188 254.75 167.042969 254.675781 167.25 254.675781 Z M 170.253906 254.675781 C 170.460938 254.675781 170.636719 254.75 170.78125 254.894531 C 170.929688 255.042969 171.003906 255.21875 171.003906 255.425781 C 171.003906 255.632812 170.929688 255.808594 170.78125 255.957031 C 170.636719 256.101562 170.460938 256.175781 170.253906 256.175781 C 170.046875 256.175781 169.867188 256.101562 169.722656 255.957031 C 169.574219 255.808594 169.503906 255.632812 169.503906 255.425781 C 169.503906 255.21875 169.574219 255.042969 169.722656 254.894531 C 169.867188 254.75 170.046875 254.675781 170.253906 254.675781 Z M 173.253906 254.675781 C 173.460938 254.675781 173.636719 254.75 173.78125 254.894531 C 173.929688 255.042969 174.003906 255.21875 174.003906 255.425781 C 174.003906 255.632812 173.929688 255.808594 173.78125 255.957031 C 173.636719 256.101562 173.460938 256.175781 173.253906 256.175781 C 173.046875 256.175781 172.867188 256.101562 172.722656 255.957031 C 172.574219 255.808594 172.503906 255.632812 172.503906 255.425781 C 172.503906 255.21875 172.574219 255.042969 172.722656 254.894531 C 172.867188 254.75 173.046875 254.675781 173.253906 254.675781 Z M 176.253906 254.675781 C 176.460938 254.675781 176.636719 254.75 176.78125 254.894531 C 176.929688 255.042969 177.003906 255.21875 177.003906 255.425781 C 177.003906 255.632812 176.929688 255.808594 176.78125 255.957031 C 176.636719 256.101562 176.460938 256.175781 176.253906 256.175781 C 176.046875 256.175781 175.867188 256.101562 175.722656 255.957031 C 175.574219 255.808594 175.503906 255.632812 175.503906 255.425781 C 175.503906 255.21875 175.574219 255.042969 175.722656 254.894531 C 175.867188 254.75 176.046875 254.675781 176.253906 254.675781 Z M 179.253906 254.675781 C 179.460938 254.675781 179.636719 254.75 179.78125 254.894531 C 179.929688 255.042969 180.003906 255.21875 180.003906 255.425781 C 180.003906 255.632812 179.929688 255.808594 179.78125 255.957031 C 179.636719 256.101562 179.460938 256.175781 179.253906 256.175781 C 179.046875 256.175781 178.867188 256.101562 178.722656 255.957031 C 178.574219 255.808594 178.503906 255.632812 178.503906 255.425781 C 178.503906 255.21875 178.574219 255.042969 178.722656 254.894531 C 178.867188 254.75 179.046875 254.675781 179.253906 254.675781 Z M 182.253906 254.675781 C 182.460938 254.675781 182.636719 254.75 182.78125 254.894531 C 182.929688 255.042969 183.003906 255.21875 183.003906 255.425781 C 183.003906 255.632812 182.929688 255.808594 182.78125 255.957031 C 182.636719 256.101562 182.460938 256.175781 182.253906 256.175781 C 182.046875 256.175781 181.867188 256.101562 181.722656 255.957031 C 181.574219 255.808594 181.503906 255.632812 181.503906 255.425781 C 181.503906 255.21875 181.574219 255.042969 181.722656 254.894531 C 181.867188 254.75 182.046875 254.675781 182.253906 254.675781 Z M 185.253906 254.675781 C 185.460938 254.675781 185.636719 254.75 185.785156 254.894531 C 185.929688 255.042969 186.003906 255.21875 186.003906 255.425781 C 186.003906 255.632812 185.929688 255.808594 185.785156 255.957031 C 185.636719 256.101562 185.460938 256.175781 185.253906 256.175781 C 185.046875 256.175781 184.867188 256.101562 184.722656 255.957031 C 184.574219 255.808594 184.503906 255.632812 184.503906 255.425781 C 184.503906 255.21875 184.574219 255.042969 184.722656 254.894531 C 184.867188 254.75 185.046875 254.675781 185.253906 254.675781 Z M 188.253906 254.675781 C 188.460938 254.675781 188.636719 254.75 188.785156 254.894531 C 188.929688 255.042969 189.003906 255.21875 189.003906 255.425781 C 189.003906 255.632812 188.929688 255.808594 188.785156 255.957031 C 188.636719 256.101562 188.460938 256.175781 188.253906 256.175781 C 188.046875 256.175781 187.867188 256.101562 187.722656 255.957031 C 187.578125 255.808594 187.503906 255.632812 187.503906 255.425781 C 187.503906 255.21875 187.578125 255.042969 187.722656 254.894531 C 187.867188 254.75 188.046875 254.675781 188.253906 254.675781 Z M 191.253906 254.675781 C 191.460938 254.675781 191.636719 254.75 191.785156 254.894531 C 191.929688 255.042969 192.003906 255.21875 192.003906 255.425781 C 192.003906 255.632812 191.929688 255.808594 191.785156 255.957031 C 191.636719 256.101562 191.460938 256.175781 191.253906 256.175781 C 191.046875 256.175781 190.871094 256.101562 190.722656 255.957031 C 190.578125 255.808594 190.503906 255.632812 190.503906 255.425781 C 190.503906 255.21875 190.578125 255.042969 190.722656 254.894531 C 190.871094 254.75 191.046875 254.675781 191.253906 254.675781 Z M 194.253906 254.675781 C 194.460938 254.675781 194.636719 254.75 194.785156 254.894531 C 194.929688 255.042969 195.003906 255.21875 195.003906 255.425781 C 195.003906 255.632812 194.929688 255.808594 194.785156 255.957031 C 194.636719 256.101562 194.460938 256.175781 194.253906 256.175781 C 194.046875 256.175781 193.871094 256.101562 193.722656 255.957031 C 193.578125 255.808594 193.503906 255.632812 193.503906 255.425781 C 193.503906 255.21875 193.578125 255.042969 193.722656 254.894531 C 193.871094 254.75 194.046875 254.675781 194.253906 254.675781 Z M 197.253906 254.675781 C 197.460938 254.675781 197.636719 254.75 197.785156 254.894531 C 197.929688 255.042969 198.003906 255.21875 198.003906 255.425781 C 198.003906 255.632812 197.929688 255.808594 197.785156 255.957031 C 197.636719 256.101562 197.460938 256.175781 197.253906 256.175781 C 197.046875 256.175781 196.871094 256.101562 196.722656 255.957031 C 196.578125 255.808594 196.503906 255.632812 196.503906 255.425781 C 196.503906 255.21875 196.578125 255.042969 196.722656 254.894531 C 196.871094 254.75 197.046875 254.675781 197.253906 254.675781 Z M 200.253906 254.675781 C 200.460938 254.675781 200.636719 254.75 200.785156 254.894531 C 200.929688 255.042969 201.003906 255.21875 201.003906 255.425781 C 201.003906 255.632812 200.929688 255.808594 200.785156 255.957031 C 200.636719 256.101562 200.460938 256.175781 200.253906 256.175781 C 200.046875 256.175781 199.871094 256.101562 199.722656 255.957031 C 199.578125 255.808594 199.503906 255.632812 199.503906 255.425781 C 199.503906 255.21875 199.578125 255.042969 199.722656 254.894531 C 199.871094 254.75 200.046875 254.675781 200.253906 254.675781 Z M 203.253906 254.675781 C 203.460938 254.675781 203.636719 254.75 203.785156 254.894531 C 203.929688 255.042969 204.003906 255.21875 204.003906 255.425781 C 204.003906 255.632812 203.929688 255.808594 203.785156 255.957031 C 203.636719 256.101562 203.460938 256.175781 203.253906 256.175781 C 203.046875 256.175781 202.871094 256.101562 202.722656 255.957031 C 202.578125 255.808594 202.503906 255.632812 202.503906 255.425781 C 202.503906 255.21875 202.578125 255.042969 202.722656 254.894531 C 202.871094 254.75 203.046875 254.675781 203.253906 254.675781 Z M 206.253906 254.675781 C 206.460938 254.675781 206.636719 254.75 206.785156 254.894531 C 206.929688 255.042969 207.003906 255.21875 207.003906 255.425781 C 207.003906 255.632812 206.929688 255.808594 206.785156 255.957031 C 206.636719 256.101562 206.460938 256.175781 206.253906 256.175781 C 206.046875 256.175781 205.871094 256.101562 205.722656 255.957031 C 205.578125 255.808594 205.503906 255.632812 205.503906 255.425781 C 205.503906 255.21875 205.578125 255.042969 205.722656 254.894531 C 205.871094 254.75 206.046875 254.675781 206.253906 254.675781 Z M 209.253906 254.675781 C 209.460938 254.675781 209.636719 254.75 209.785156 254.894531 C 209.929688 255.042969 210.003906 255.21875 210.003906 255.425781 C 210.003906 255.632812 209.929688 255.808594 209.785156 255.957031 C 209.636719 256.101562 209.460938 256.175781 209.253906 256.175781 C 209.046875 256.175781 208.871094 256.101562 208.722656 255.957031 C 208.578125 255.808594 208.503906 255.632812 208.503906 255.425781 C 208.503906 255.21875 208.578125 255.042969 208.722656 254.894531 C 208.871094 254.75 209.046875 254.675781 209.253906 254.675781 Z M 212.253906 254.675781 C 212.460938 254.675781 212.636719 254.75 212.785156 254.894531 C 212.929688 255.042969 213.003906 255.21875 213.003906 255.425781 C 213.003906 255.632812 212.929688 255.808594 212.785156 255.957031 C 212.636719 256.101562 212.460938 256.175781 212.253906 256.175781 C 212.046875 256.175781 211.871094 256.101562 211.722656 255.957031 C 211.578125 255.808594 211.503906 255.632812 211.503906 255.425781 C 211.503906 255.21875 211.578125 255.042969 211.722656 254.894531 C 211.871094 254.75 212.046875 254.675781 212.253906 254.675781 Z M 215.253906 254.675781 C 215.460938 254.675781 215.636719 254.75 215.785156 254.894531 C 215.929688 255.042969 216.003906 255.21875 216.003906 255.425781 C 216.003906 255.632812 215.929688 255.808594 215.785156 255.957031 C 215.636719 256.101562 215.460938 256.175781 215.253906 256.175781 C 215.046875 256.175781 214.871094 256.101562 214.722656 255.957031 C 214.578125 255.808594 214.503906 255.632812 214.503906 255.425781 C 214.503906 255.21875 214.578125 255.042969 214.722656 254.894531 C 214.871094 254.75 215.046875 254.675781 215.253906 254.675781 Z M 218.253906 254.675781 C 218.460938 254.675781 218.636719 254.75 218.785156 254.894531 C 218.929688 255.042969 219.003906 255.21875 219.003906 255.425781 C 219.003906 255.632812 218.929688 255.808594 218.785156 255.957031 C 218.636719 256.101562 218.460938 256.175781 218.253906 256.175781 C 218.046875 256.175781 217.871094 256.101562 217.722656 255.957031 C 217.578125 255.808594 217.503906 255.632812 217.503906 255.425781 C 217.503906 255.21875 217.578125 255.042969 217.722656 254.894531 C 217.871094 254.75 218.046875 254.675781 218.253906 254.675781 Z M 221.253906 254.675781 C 221.460938 254.675781 221.636719 254.75 221.785156 254.894531 C 221.929688 255.042969 222.003906 255.21875 222.003906 255.425781 C 222.003906 255.632812 221.929688 255.808594 221.785156 255.957031 C 221.636719 256.101562 221.460938 256.175781 221.253906 256.175781 C 221.046875 256.175781 220.871094 256.101562 220.722656 255.957031 C 220.578125 255.808594 220.503906 255.632812 220.503906 255.425781 C 220.503906 255.21875 220.578125 255.042969 220.722656 254.894531 C 220.871094 254.75 221.046875 254.675781 221.253906 254.675781 Z M 224.253906 254.675781 C 224.460938 254.675781 224.640625 254.75 224.785156 254.894531 C 224.933594 255.042969 225.003906 255.21875 225.003906 255.425781 C 225.003906 255.632812 224.933594 255.808594 224.785156 255.957031 C 224.640625 256.101562 224.460938 256.175781 224.253906 256.175781 C 224.046875 256.175781 223.871094 256.101562 223.722656 255.957031 C 223.578125 255.808594 223.503906 255.632812 223.503906 255.425781 C 223.503906 255.21875 223.578125 255.042969 223.722656 254.894531 C 223.871094 254.75 224.046875 254.675781 224.253906 254.675781 Z M 227.253906 254.675781 C 227.460938 254.675781 227.640625 254.75 227.785156 254.894531 C 227.933594 255.042969 228.003906 255.21875 228.003906 255.425781 C 228.003906 255.632812 227.933594 255.808594 227.785156 255.957031 C 227.640625 256.101562 227.460938 256.175781 227.253906 256.175781 C 227.046875 256.175781 226.871094 256.101562 226.722656 255.957031 C 226.578125 255.808594 226.503906 255.632812 226.503906 255.425781 C 226.503906 255.21875 226.578125 255.042969 226.722656 254.894531 C 226.871094 254.75 227.046875 254.675781 227.253906 254.675781 Z M 230.253906 254.675781 C 230.460938 254.675781 230.640625 254.75 230.785156 254.894531 C 230.933594 255.042969 231.003906 255.21875 231.003906 255.425781 C 231.003906 255.632812 230.933594 255.808594 230.785156 255.957031 C 230.640625 256.101562 230.460938 256.175781 230.253906 256.175781 C 230.046875 256.175781 229.871094 256.101562 229.726562 255.957031 C 229.578125 255.808594 229.503906 255.632812 229.503906 255.425781 C 229.503906 255.21875 229.578125 255.042969 229.726562 254.894531 C 229.871094 254.75 230.046875 254.675781 230.253906 254.675781 Z M 233.253906 254.675781 C 233.460938 254.675781 233.640625 254.75 233.785156 254.894531 C 233.933594 255.042969 234.003906 255.21875 234.003906 255.425781 C 234.003906 255.632812 233.933594 255.808594 233.785156 255.957031 C 233.640625 256.101562 233.460938 256.175781 233.253906 256.175781 C 233.046875 256.175781 232.871094 256.101562 232.726562 255.957031 C 232.578125 255.808594 232.503906 255.632812 232.503906 255.425781 C 232.503906 255.21875 232.578125 255.042969 232.726562 254.894531 C 232.871094 254.75 233.046875 254.675781 233.253906 254.675781 Z M 236.253906 254.675781 C 236.460938 254.675781 236.640625 254.75 236.785156 254.894531 C 236.933594 255.042969 237.003906 255.21875 237.003906 255.425781 C 237.003906 255.632812 236.933594 255.808594 236.785156 255.957031 C 236.640625 256.101562 236.460938 256.175781 236.253906 256.175781 C 236.046875 256.175781 235.871094 256.101562 235.726562 255.957031 C 235.578125 255.808594 235.503906 255.632812 235.503906 255.425781 C 235.503906 255.21875 235.578125 255.042969 235.726562 254.894531 C 235.871094 254.75 236.046875 254.675781 236.253906 254.675781 Z M 239.253906 254.675781 C 239.460938 254.675781 239.640625 254.75 239.785156 254.894531 C 239.933594 255.042969 240.003906 255.21875 240.003906 255.425781 C 240.003906 255.632812 239.933594 255.808594 239.785156 255.957031 C 239.640625 256.101562 239.460938 256.175781 239.253906 256.175781 C 239.046875 256.175781 238.871094 256.101562 238.726562 255.957031 C 238.578125 255.808594 238.503906 255.632812 238.503906 255.425781 C 238.503906 255.21875 238.578125 255.042969 238.726562 254.894531 C 238.871094 254.75 239.046875 254.675781 239.253906 254.675781 Z M 242.253906 254.675781 C 242.464844 254.675781 242.640625 254.75 242.785156 254.894531 C 242.933594 255.042969 243.003906 255.21875 243.003906 255.425781 C 243.003906 255.632812 242.933594 255.808594 242.785156 255.957031 C 242.640625 256.101562 242.464844 256.175781 242.253906 256.175781 C 242.046875 256.175781 241.871094 256.101562 241.726562 255.957031 C 241.578125 255.808594 241.503906 255.632812 241.503906 255.425781 C 241.503906 255.21875 241.578125 255.042969 241.726562 254.894531 C 241.871094 254.75 242.046875 254.675781 242.253906 254.675781 Z M 245.253906 254.675781 L 245.257812 254.675781 C 245.464844 254.675781 245.640625 254.75 245.785156 254.894531 C 245.933594 255.042969 246.007812 255.21875 246.007812 255.425781 C 246.007812 255.632812 245.933594 255.808594 245.785156 255.957031 C 245.640625 256.101562 245.464844 256.175781 245.257812 256.175781 L 245.253906 256.175781 C 245.046875 256.175781 244.871094 256.101562 244.726562 255.957031 C 244.578125 255.808594 244.503906 255.632812 244.503906 255.425781 C 244.503906 255.21875 244.578125 255.042969 244.726562 254.894531 C 244.871094 254.75 245.046875 254.675781 245.253906 254.675781 Z M 245.253906 254.675781 " fill-opacity="1" fill-rule="nonzero"/><g clip-path="url(#id1)"><path fill="#ffffff" d="M 168.105469 169.496094 L 168.105469 176 L 181.78125 186.9375 L 182.003906 187.117188 L 182.003906 193.917969 C 182.242188 194.003906 182.460938 194.140625 182.632812 194.320312 C 182.945312 194.632812 183.144531 195.066406 183.144531 195.546875 C 183.144531 196.027344 182.953125 196.460938 182.632812 196.773438 C 182.324219 197.085938 181.886719 197.285156 181.40625 197.285156 C 180.925781 197.285156 180.492188 197.089844 180.179688 196.773438 C 179.867188 196.460938 179.667969 196.027344 179.667969 195.546875 C 179.667969 195.066406 179.863281 194.632812 180.179688 194.320312 C 180.355469 194.148438 180.570312 194.003906 180.808594 193.917969 L 180.808594 187.699219 L 168.097656 177.53125 L 168.097656 188.371094 L 176.976562 195.421875 L 177.199219 195.601562 L 177.199219 202.089844 C 177.4375 202.175781 177.65625 202.3125 177.832031 202.496094 C 178.140625 202.804688 178.339844 203.242188 178.339844 203.722656 C 178.339844 204.199219 178.148438 204.636719 177.832031 204.945312 C 177.519531 205.257812 177.082031 205.457031 176.601562 205.457031 C 176.125 205.457031 175.6875 205.265625 175.375 204.945312 C 175.0625 204.636719 174.863281 204.199219 174.863281 203.722656 C 174.863281 203.242188 175.058594 202.804688 175.375 202.496094 C 175.550781 202.320312 175.769531 202.175781 176.003906 202.089844 L 176.003906 196.175781 L 168.089844 189.894531 L 168.089844 200.726562 C 168.328125 200.8125 168.546875 200.949219 168.71875 201.132812 C 169.03125 201.441406 169.230469 201.878906 169.230469 202.359375 C 169.230469 202.835938 169.039062 203.273438 168.71875 203.582031 C 168.410156 203.894531 167.972656 204.09375 167.492188 204.09375 C 167.011719 204.09375 166.578125 203.902344 166.265625 203.582031 C 165.953125 203.273438 165.753906 202.835938 165.753906 202.359375 C 165.753906 201.878906 165.949219 201.441406 166.265625 201.132812 C 166.441406 200.957031 166.660156 200.8125 166.894531 200.726562 L 166.894531 195.085938 L 155.714844 203.765625 L 155.714844 209.984375 C 155.953125 210.070312 156.171875 210.207031 156.347656 210.386719 C 156.65625 210.699219 156.855469 211.136719 156.855469 211.613281 C 156.855469 212.09375 156.664062 212.53125 156.347656 212.839844 C 156.035156 213.152344 155.597656 213.351562 155.117188 213.351562 C 154.636719 213.351562 154.203125 213.15625 153.890625 212.839844 C 153.578125 212.53125 153.378906 212.09375 153.378906 211.613281 C 153.378906 211.136719 153.574219 210.699219 153.890625 210.386719 C 154.066406 210.214844 154.285156 210.070312 154.519531 209.984375 L 154.519531 203.191406 L 154.746094 203.011719 L 166.890625 193.5625 L 166.890625 179.972656 L 158.976562 186.253906 L 158.976562 192.472656 C 159.210938 192.558594 159.429688 192.695312 159.605469 192.875 C 159.917969 193.1875 160.117188 193.625 160.117188 194.101562 C 160.117188 194.582031 159.921875 195.019531 159.605469 195.328125 C 159.292969 195.640625 158.855469 195.839844 158.378906 195.839844 C 157.898438 195.839844 157.460938 195.648438 157.148438 195.328125 C 156.839844 195.019531 156.640625 194.582031 156.640625 194.101562 C 156.640625 193.625 156.832031 193.1875 157.148438 192.875 C 157.324219 192.703125 157.542969 192.558594 157.777344 192.472656 L 157.777344 185.679688 L 158.003906 185.5 L 166.882812 178.449219 L 166.882812 167.035156 L 168.078125 167.035156 L 168.078125 169.488281 Z M 167.886719 201.964844 C 167.785156 201.867188 167.65625 201.808594 167.503906 201.808594 C 167.355469 201.808594 167.21875 201.871094 167.125 201.964844 C 167.027344 202.066406 166.96875 202.195312 166.96875 202.34375 C 166.96875 202.496094 167.03125 202.632812 167.125 202.726562 C 167.226562 202.824219 167.355469 202.878906 167.503906 202.878906 C 167.65625 202.878906 167.792969 202.816406 167.886719 202.726562 C 167.984375 202.625 168.042969 202.496094 168.042969 202.34375 C 168.042969 202.195312 167.980469 202.058594 167.886719 201.964844 Z M 155.515625 211.226562 C 155.417969 211.128906 155.285156 211.074219 155.136719 211.074219 C 154.988281 211.074219 154.851562 211.136719 154.757812 211.226562 C 154.65625 211.328125 154.601562 211.457031 154.601562 211.609375 C 154.601562 211.757812 154.664062 211.894531 154.757812 211.988281 C 154.855469 212.085938 154.988281 212.144531 155.136719 212.144531 C 155.285156 212.144531 155.421875 212.082031 155.515625 211.988281 C 155.617188 211.886719 155.671875 211.757812 155.671875 211.609375 C 155.671875 211.457031 155.609375 211.320312 155.515625 211.226562 Z M 176.996094 203.335938 C 176.894531 203.234375 176.765625 203.179688 176.617188 203.179688 C 176.464844 203.179688 176.328125 203.242188 176.234375 203.335938 C 176.136719 203.433594 176.078125 203.566406 176.078125 203.714844 C 176.078125 203.863281 176.140625 204 176.234375 204.09375 C 176.335938 204.195312 176.464844 204.25 176.617188 204.25 C 176.765625 204.25 176.902344 204.1875 176.996094 204.09375 C 177.09375 203.996094 177.152344 203.863281 177.152344 203.714844 C 177.152344 203.566406 177.089844 203.429688 176.996094 203.335938 Z M 181.792969 195.15625 C 181.695312 195.054688 181.5625 195 181.414062 195 C 181.265625 195 181.125 195.0625 181.03125 195.15625 C 180.933594 195.253906 180.878906 195.386719 180.878906 195.535156 C 180.878906 195.683594 180.941406 195.820312 181.03125 195.914062 C 181.132812 196.015625 181.265625 196.070312 181.414062 196.070312 C 181.5625 196.070312 181.699219 196.007812 181.792969 195.914062 C 181.894531 195.816406 181.949219 195.683594 181.949219 195.535156 C 181.949219 195.386719 181.886719 195.25 181.792969 195.15625 Z M 158.777344 193.722656 C 158.675781 193.625 158.546875 193.566406 158.394531 193.566406 C 158.246094 193.566406 158.109375 193.628906 158.015625 193.722656 C 157.917969 193.824219 157.859375 193.953125 157.859375 194.101562 C 157.859375 194.253906 157.921875 194.390625 158.015625 194.484375 C 158.117188 194.582031 158.246094 194.636719 158.394531 194.636719 C 158.546875 194.636719 158.683594 194.578125 158.777344 194.484375 C 158.875 194.382812 158.933594 194.253906 158.933594 194.101562 C 158.933594 193.953125 158.871094 193.816406 158.777344 193.722656 Z M 158.777344 193.722656 " fill-opacity="1" fill-rule="evenodd"/></g><g clip-path="url(#id2)"><path fill="#ffffff" d="M 193.730469 145.484375 L 193.730469 149.945312 L 203.070312 157.449219 L 203.222656 157.570312 L 203.222656 162.234375 C 203.382812 162.296875 203.53125 162.390625 203.652344 162.511719 C 203.863281 162.726562 204 163.023438 204 163.355469 C 204 163.683594 203.871094 163.980469 203.652344 164.195312 C 203.441406 164.410156 203.140625 164.546875 202.8125 164.546875 C 202.488281 164.546875 202.1875 164.414062 201.976562 164.195312 C 201.761719 163.980469 201.625 163.683594 201.625 163.355469 C 201.625 163.023438 201.757812 162.726562 201.976562 162.511719 C 202.09375 162.394531 202.242188 162.296875 202.40625 162.234375 L 202.40625 157.96875 L 193.726562 150.996094 L 193.726562 158.429688 L 199.789062 163.269531 L 199.941406 163.390625 L 199.941406 167.84375 C 200.101562 167.902344 200.253906 167.996094 200.371094 168.121094 C 200.585938 168.332031 200.71875 168.632812 200.71875 168.960938 C 200.71875 169.289062 200.589844 169.589844 200.371094 169.800781 C 200.160156 170.015625 199.859375 170.152344 199.53125 170.152344 C 199.207031 170.152344 198.90625 170.019531 198.695312 169.800781 C 198.480469 169.589844 198.347656 169.289062 198.347656 168.960938 C 198.347656 168.632812 198.476562 168.332031 198.695312 168.121094 C 198.8125 168 198.964844 167.902344 199.125 167.84375 L 199.125 163.785156 L 193.71875 159.476562 L 193.71875 166.90625 C 193.882812 166.964844 194.03125 167.0625 194.148438 167.183594 C 194.363281 167.398438 194.5 167.695312 194.5 168.027344 C 194.5 168.355469 194.367188 168.652344 194.148438 168.867188 C 193.9375 169.082031 193.640625 169.21875 193.3125 169.21875 C 192.984375 169.21875 192.6875 169.085938 192.472656 168.867188 C 192.261719 168.652344 192.125 168.355469 192.125 168.027344 C 192.125 167.695312 192.257812 167.398438 192.472656 167.183594 C 192.59375 167.066406 192.742188 166.964844 192.902344 166.90625 L 192.902344 163.039062 L 185.269531 168.992188 L 185.269531 173.257812 C 185.429688 173.316406 185.578125 173.410156 185.699219 173.535156 C 185.910156 173.746094 186.046875 174.046875 186.046875 174.375 C 186.046875 174.703125 185.917969 175.003906 185.699219 175.214844 C 185.488281 175.429688 185.1875 175.566406 184.859375 175.566406 C 184.53125 175.566406 184.234375 175.433594 184.023438 175.214844 C 183.808594 175.003906 183.671875 174.703125 183.671875 174.375 C 183.671875 174.046875 183.804688 173.746094 184.023438 173.535156 C 184.140625 173.414062 184.289062 173.316406 184.453125 173.257812 L 184.453125 168.597656 L 184.605469 168.472656 L 192.898438 161.992188 L 192.898438 152.667969 L 187.496094 156.980469 L 187.496094 161.246094 C 187.65625 161.304688 187.804688 161.398438 187.925781 161.523438 C 188.136719 161.734375 188.273438 162.035156 188.273438 162.363281 C 188.273438 162.691406 188.140625 162.992188 187.925781 163.203125 C 187.710938 163.417969 187.414062 163.554688 187.085938 163.554688 C 186.757812 163.554688 186.460938 163.421875 186.246094 163.203125 C 186.035156 162.992188 185.898438 162.691406 185.898438 162.363281 C 185.898438 162.035156 186.03125 161.734375 186.246094 161.523438 C 186.367188 161.402344 186.515625 161.304688 186.679688 161.246094 L 186.679688 156.585938 L 186.832031 156.460938 L 192.894531 151.625 L 192.894531 143.796875 L 193.710938 143.796875 L 193.710938 145.480469 Z M 193.578125 167.757812 C 193.511719 167.6875 193.421875 167.648438 193.320312 167.648438 C 193.21875 167.648438 193.125 167.691406 193.0625 167.757812 C 192.992188 167.824219 192.953125 167.914062 192.953125 168.015625 C 192.953125 168.121094 192.996094 168.214844 193.0625 168.277344 C 193.128906 168.347656 193.21875 168.382812 193.320312 168.382812 C 193.421875 168.382812 193.515625 168.339844 193.578125 168.277344 C 193.648438 168.210938 193.6875 168.121094 193.6875 168.015625 C 193.6875 167.914062 193.644531 167.820312 193.578125 167.757812 Z M 185.132812 174.109375 C 185.066406 174.042969 184.976562 174.003906 184.875 174.003906 C 184.769531 174.003906 184.679688 174.046875 184.613281 174.109375 C 184.546875 174.179688 184.507812 174.269531 184.507812 174.371094 C 184.507812 174.472656 184.550781 174.566406 184.613281 174.632812 C 184.683594 174.699219 184.769531 174.738281 184.875 174.738281 C 184.976562 174.738281 185.070312 174.695312 185.132812 174.632812 C 185.203125 174.5625 185.238281 174.472656 185.238281 174.371094 C 185.238281 174.269531 185.195312 174.175781 185.132812 174.109375 Z M 199.800781 168.695312 C 199.734375 168.628906 199.644531 168.589844 199.542969 168.589844 C 199.441406 168.589844 199.347656 168.632812 199.28125 168.695312 C 199.214844 168.765625 199.175781 168.855469 199.175781 168.957031 C 199.175781 169.058594 199.21875 169.152344 199.28125 169.21875 C 199.351562 169.285156 199.441406 169.324219 199.542969 169.324219 C 199.644531 169.324219 199.738281 169.28125 199.800781 169.21875 C 199.871094 169.148438 199.90625 169.058594 199.90625 168.957031 C 199.90625 168.855469 199.863281 168.761719 199.800781 168.695312 Z M 203.078125 163.085938 C 203.007812 163.015625 202.921875 162.976562 202.816406 162.976562 C 202.714844 162.976562 202.621094 163.019531 202.558594 163.085938 C 202.492188 163.152344 202.453125 163.242188 202.453125 163.34375 C 202.453125 163.449219 202.496094 163.542969 202.558594 163.605469 C 202.625 163.675781 202.714844 163.710938 202.816406 163.710938 C 202.921875 163.710938 203.015625 163.671875 203.078125 163.605469 C 203.144531 163.539062 203.183594 163.449219 203.183594 163.34375 C 203.183594 163.242188 203.140625 163.148438 203.078125 163.085938 Z M 187.359375 162.101562 C 187.289062 162.035156 187.203125 161.996094 187.097656 161.996094 C 186.996094 161.996094 186.902344 162.039062 186.839844 162.101562 C 186.769531 162.171875 186.734375 162.261719 186.734375 162.363281 C 186.734375 162.464844 186.777344 162.558594 186.839844 162.625 C 186.90625 162.691406 186.996094 162.730469 187.097656 162.730469 C 187.203125 162.730469 187.292969 162.6875 187.359375 162.625 C 187.425781 162.554688 187.464844 162.464844 187.464844 162.363281 C 187.464844 162.261719 187.421875 162.167969 187.359375 162.101562 Z M 187.359375 162.101562 " fill-opacity="1" fill-rule="evenodd"/></g><g clip-path="url(#id3)"><path fill="#ffffff" d="M 148.085938 178.847656 L 167.453125 167.71875 L 186.816406 178.847656 L 186.816406 210.476562 L 167.980469 221.308594 L 167.980469 205.851562 L 180.375 198.714844 C 180.613281 198.542969 180.664062 198.214844 180.492188 197.976562 C 180.34375 197.777344 180.074219 197.707031 179.847656 197.808594 L 167.980469 204.628906 L 167.980469 180.640625 C 167.980469 180.351562 167.742188 180.113281 167.453125 180.113281 C 167.160156 180.113281 166.921875 180.351562 166.921875 180.640625 L 166.921875 193.710938 L 155.054688 186.890625 C 154.820312 186.71875 154.488281 186.773438 154.316406 187.007812 C 154.144531 187.242188 154.195312 187.574219 154.433594 187.746094 C 154.460938 187.765625 154.492188 187.785156 154.527344 187.800781 L 166.921875 194.9375 L 166.921875 221.308594 L 148.085938 210.476562 Z M 168.617188 158.175781 L 194.0625 143.542969 L 219.53125 158.175781 L 219.53125 199.6875 L 194.59375 214.023438 L 194.59375 195.464844 L 210.886719 186.109375 C 211.152344 185.992188 211.269531 185.675781 211.152344 185.410156 C 211.03125 185.144531 210.714844 185.027344 210.449219 185.148438 C 210.417969 185.164062 210.386719 185.179688 210.355469 185.203125 L 194.613281 194.261719 L 194.613281 171.835938 L 202.707031 167.171875 C 202.945312 167 202.996094 166.667969 202.824219 166.433594 C 202.675781 166.230469 202.40625 166.160156 202.175781 166.261719 L 194.613281 170.613281 L 194.613281 157.585938 C 194.613281 157.292969 194.375 157.058594 194.082031 157.058594 C 193.792969 157.058594 193.554688 157.292969 193.554688 157.585938 L 193.554688 214.023438 L 187.875 210.75 L 187.875 178.53125 C 187.878906 178.339844 187.785156 178.164062 187.621094 178.066406 L 168.636719 167.148438 L 168.636719 158.175781 Z M 206.011719 237.398438 L 215.207031 237.398438 L 219.507812 244.808594 L 201.734375 244.808594 Z M 147.300781 211.238281 L 166.921875 222.53125 L 166.921875 244.808594 L 156.625 244.808594 C 156.332031 244.808594 156.09375 245.046875 156.09375 245.335938 C 156.09375 245.628906 156.332031 245.863281 156.625 245.863281 L 175.882812 245.863281 C 176.175781 245.863281 176.414062 245.628906 176.414062 245.335938 C 176.414062 245.046875 176.175781 244.808594 175.882812 244.808594 L 167.980469 244.808594 L 167.980469 222.511719 L 187.09375 211.511719 L 193.535156 215.25 L 193.535156 244.808594 L 183.085938 244.808594 C 182.792969 244.808594 182.558594 245.046875 182.558594 245.335938 C 182.558594 245.628906 182.792969 245.863281 183.085938 245.863281 L 227.519531 245.863281 C 227.8125 245.863281 228.046875 245.628906 228.046875 245.335938 C 228.046875 245.046875 227.8125 244.808594 227.519531 244.808594 L 220.738281 244.808594 L 215.992188 236.617188 C 215.894531 236.457031 215.714844 236.359375 215.527344 236.363281 L 205.714844 236.363281 C 205.523438 236.363281 205.34375 236.46875 205.25 236.636719 L 200.503906 244.808594 L 194.59375 244.808594 L 194.59375 215.25 L 220.3125 200.449219 C 220.484375 200.355469 220.589844 200.175781 220.589844 199.980469 L 220.589844 157.878906 C 220.59375 157.691406 220.496094 157.515625 220.335938 157.414062 L 194.339844 142.464844 C 194.175781 142.371094 193.972656 142.371094 193.808594 142.464844 L 167.832031 157.414062 C 167.671875 157.515625 167.574219 157.691406 167.578125 157.878906 L 167.578125 166.578125 C 167.449219 166.550781 167.3125 166.574219 167.195312 166.644531 L 147.300781 178.085938 C 147.140625 178.183594 147.042969 178.363281 147.046875 178.550781 L 147.046875 210.773438 C 147.042969 210.960938 147.140625 211.136719 147.300781 211.238281 " fill-opacity="1" fill-rule="nonzero"/></g><g fill="#ffffff" fill-opacity="1"><g transform="translate(156.146251, 130.925507)"><g><path d="M 8.046875 -1.421875 L 8.046875 0 L 1.21875 0 L 1.21875 -9.09375 L 7.859375 -9.09375 L 7.859375 -7.6875 L 2.90625 -7.6875 L 2.90625 -5.3125 L 7.3125 -5.3125 L 7.3125 -3.921875 L 2.90625 -3.921875 L 2.90625 -1.421875 Z M 8.046875 -1.421875 "/></g></g></g><g fill="#ffffff" fill-opacity="1"><g transform="translate(166.686587, 130.925507)"><g><path d="M 5.4375 0.125 C 4.519531 0.125 3.6875 -0.0703125 2.9375 -0.46875 C 2.195312 -0.875 1.617188 -1.429688 1.203125 -2.140625 C 0.785156 -2.859375 0.578125 -3.660156 0.578125 -4.546875 C 0.578125 -5.441406 0.785156 -6.242188 1.203125 -6.953125 C 1.628906 -7.660156 2.210938 -8.21875 2.953125 -8.625 C 3.691406 -9.03125 4.523438 -9.234375 5.453125 -9.234375 C 6.191406 -9.234375 6.867188 -9.101562 7.484375 -8.84375 C 8.097656 -8.582031 8.617188 -8.203125 9.046875 -7.703125 L 7.953125 -6.6875 C 7.296875 -7.394531 6.488281 -7.75 5.53125 -7.75 C 4.90625 -7.75 4.34375 -7.609375 3.84375 -7.328125 C 3.351562 -7.054688 2.96875 -6.675781 2.6875 -6.1875 C 2.414062 -5.707031 2.28125 -5.160156 2.28125 -4.546875 C 2.28125 -3.929688 2.414062 -3.378906 2.6875 -2.890625 C 2.96875 -2.410156 3.351562 -2.035156 3.84375 -1.765625 C 4.34375 -1.492188 4.90625 -1.359375 5.53125 -1.359375 C 6.488281 -1.359375 7.296875 -1.71875 7.953125 -2.4375 L 9.046875 -1.390625 C 8.617188 -0.898438 8.09375 -0.523438 7.46875 -0.265625 C 6.851562 -0.00390625 6.175781 0.125 5.4375 0.125 Z M 5.4375 0.125 "/></g></g></g><g fill="#ffffff" fill-opacity="1"><g transform="translate(177.967698, 130.925507)"><g><path d="M 5.46875 0.125 C 4.539062 0.125 3.703125 -0.0703125 2.953125 -0.46875 C 2.210938 -0.875 1.628906 -1.429688 1.203125 -2.140625 C 0.785156 -2.859375 0.578125 -3.660156 0.578125 -4.546875 C 0.578125 -5.429688 0.785156 -6.226562 1.203125 -6.9375 C 1.628906 -7.65625 2.210938 -8.21875 2.953125 -8.625 C 3.703125 -9.03125 4.539062 -9.234375 5.46875 -9.234375 C 6.394531 -9.234375 7.226562 -9.03125 7.96875 -8.625 C 8.71875 -8.21875 9.304688 -7.660156 9.734375 -6.953125 C 10.160156 -6.242188 10.375 -5.441406 10.375 -4.546875 C 10.375 -3.660156 10.160156 -2.859375 9.734375 -2.140625 C 9.304688 -1.429688 8.71875 -0.875 7.96875 -0.46875 C 7.226562 -0.0703125 6.394531 0.125 5.46875 0.125 Z M 5.46875 -1.359375 C 6.082031 -1.359375 6.628906 -1.492188 7.109375 -1.765625 C 7.597656 -2.035156 7.976562 -2.414062 8.25 -2.90625 C 8.53125 -3.394531 8.671875 -3.941406 8.671875 -4.546875 C 8.671875 -5.148438 8.53125 -5.695312 8.25 -6.1875 C 7.976562 -6.675781 7.597656 -7.054688 7.109375 -7.328125 C 6.628906 -7.609375 6.082031 -7.75 5.46875 -7.75 C 4.863281 -7.75 4.316406 -7.609375 3.828125 -7.328125 C 3.347656 -7.054688 2.96875 -6.675781 2.6875 -6.1875 C 2.414062 -5.695312 2.28125 -5.148438 2.28125 -4.546875 C 2.28125 -3.941406 2.414062 -3.394531 2.6875 -2.90625 C 2.96875 -2.414062 3.347656 -2.035156 3.828125 -1.765625 C 4.316406 -1.492188 4.863281 -1.359375 5.46875 -1.359375 Z M 5.46875 -1.359375 "/></g></g></g><g fill="#ffffff" fill-opacity="1"><g transform="translate(190.743352, 130.925507)"><g><path d="M 0.71875 -4.296875 L 4.296875 -4.296875 L 4.296875 -2.9375 L 0.71875 -2.9375 Z M 0.71875 -4.296875 "/></g></g></g><g fill="#ffffff" fill-opacity="1"><g transform="translate(197.579829, 130.925507)"><g><path d="M 1.21875 -9.09375 L 5.203125 -9.09375 C 6.171875 -9.09375 7.03125 -8.90625 7.78125 -8.53125 C 8.539062 -8.15625 9.128906 -7.625 9.546875 -6.9375 C 9.960938 -6.25 10.171875 -5.453125 10.171875 -4.546875 C 10.171875 -3.648438 9.960938 -2.851562 9.546875 -2.15625 C 9.128906 -1.46875 8.539062 -0.9375 7.78125 -0.5625 C 7.03125 -0.1875 6.171875 0 5.203125 0 L 1.21875 0 Z M 5.125 -1.4375 C 5.789062 -1.4375 6.375 -1.5625 6.875 -1.8125 C 7.382812 -2.070312 7.773438 -2.4375 8.046875 -2.90625 C 8.328125 -3.375 8.46875 -3.921875 8.46875 -4.546875 C 8.46875 -5.171875 8.328125 -5.71875 8.046875 -6.1875 C 7.773438 -6.664062 7.382812 -7.03125 6.875 -7.28125 C 6.375 -7.539062 5.789062 -7.671875 5.125 -7.671875 L 2.90625 -7.671875 L 2.90625 -1.4375 Z M 5.125 -1.4375 "/></g></g></g><g fill="#ffffff" fill-opacity="1"><g transform="translate(210.147541, 130.925507)"><g><path d="M 8.046875 -1.421875 L 8.046875 0 L 1.21875 0 L 1.21875 -9.09375 L 7.859375 -9.09375 L 7.859375 -7.6875 L 2.90625 -7.6875 L 2.90625 -5.3125 L 7.3125 -5.3125 L 7.3125 -3.921875 L 2.90625 -3.921875 L 2.90625 -1.421875 Z M 8.046875 -1.421875 "/></g></g></g><path fill="#ffffff" d="M 128.25 263.867188 L 132.75 263.867188 C 132.957031 263.867188 133.132812 263.941406 133.28125 264.085938 C 133.425781 264.234375 133.5 264.410156 133.5 264.617188 C 133.5 264.824219 133.425781 265 133.28125 265.148438 C 133.132812 265.292969 132.957031 265.367188 132.75 265.367188 L 128.25 265.367188 C 128.042969 265.367188 127.867188 265.292969 127.71875 265.148438 C 127.574219 265 127.5 264.824219 127.5 264.617188 C 127.5 264.410156 127.574219 264.234375 127.71875 264.085938 C 127.867188 263.941406 128.042969 263.867188 128.25 263.867188 Z M 135.75 263.867188 L 140.25 263.867188 C 140.457031 263.867188 140.632812 263.941406 140.78125 264.085938 C 140.925781 264.234375 141 264.410156 141 264.617188 C 141 264.824219 140.925781 265 140.78125 265.148438 C 140.632812 265.292969 140.457031 265.367188 140.25 265.367188 L 135.75 265.367188 C 135.542969 265.367188 135.367188 265.292969 135.21875 265.148438 C 135.074219 265 135 264.824219 135 264.617188 C 135 264.410156 135.074219 264.234375 135.21875 264.085938 C 135.367188 263.941406 135.542969 263.867188 135.75 263.867188 Z M 143.25 263.867188 L 147.75 263.867188 C 147.957031 263.867188 148.132812 263.941406 148.28125 264.085938 C 148.425781 264.234375 148.5 264.410156 148.5 264.617188 C 148.5 264.824219 148.425781 265 148.28125 265.148438 C 148.132812 265.292969 147.957031 265.367188 147.75 265.367188 L 143.25 265.367188 C 143.042969 265.367188 142.867188 265.292969 142.71875 265.148438 C 142.574219 265 142.5 264.824219 142.5 264.617188 C 142.5 264.410156 142.574219 264.234375 142.71875 264.085938 C 142.867188 263.941406 143.042969 263.867188 143.25 263.867188 Z M 150.75 263.867188 L 155.25 263.867188 C 155.457031 263.867188 155.632812 263.941406 155.78125 264.085938 C 155.925781 264.234375 156 264.410156 156 264.617188 C 156 264.824219 155.925781 265 155.78125 265.148438 C 155.632812 265.292969 155.457031 265.367188 155.25 265.367188 L 150.75 265.367188 C 150.542969 265.367188 150.367188 265.292969 150.21875 265.148438 C 150.074219 265 150 264.824219 150 264.617188 C 150 264.410156 150.074219 264.234375 150.21875 264.085938 C 150.367188 263.941406 150.542969 263.867188 150.75 263.867188 Z M 158.25 263.867188 L 162.75 263.867188 C 162.957031 263.867188 163.132812 263.941406 163.28125 264.085938 C 163.425781 264.234375 163.5 264.410156 163.5 264.617188 C 163.5 264.824219 163.425781 265 163.28125 265.148438 C 163.132812 265.292969 162.957031 265.367188 162.75 265.367188 L 158.25 265.367188 C 158.042969 265.367188 157.867188 265.292969 157.71875 265.148438 C 157.574219 265 157.5 264.824219 157.5 264.617188 C 157.5 264.410156 157.574219 264.234375 157.71875 264.085938 C 157.867188 263.941406 158.042969 263.867188 158.25 263.867188 Z M 165.75 263.867188 L 170.25 263.867188 C 170.457031 263.867188 170.632812 263.941406 170.78125 264.085938 C 170.925781 264.234375 171 264.410156 171 264.617188 C 171 264.824219 170.925781 265 170.78125 265.148438 C 170.632812 265.292969 170.457031 265.367188 170.25 265.367188 L 165.75 265.367188 C 165.542969 265.367188 165.367188 265.292969 165.21875 265.148438 C 165.074219 265 165 264.824219 165 264.617188 C 165 264.410156 165.074219 264.234375 165.21875 264.085938 C 165.367188 263.941406 165.542969 263.867188 165.75 263.867188 Z M 173.25 263.867188 L 177.75 263.867188 C 177.957031 263.867188 178.132812 263.941406 178.28125 264.085938 C 178.425781 264.234375 178.5 264.410156 178.5 264.617188 C 178.5 264.824219 178.425781 265 178.28125 265.148438 C 178.132812 265.292969 177.957031 265.367188 177.75 265.367188 L 173.25 265.367188 C 173.042969 265.367188 172.867188 265.292969 172.71875 265.148438 C 172.574219 265 172.5 264.824219 172.5 264.617188 C 172.5 264.410156 172.574219 264.234375 172.71875 264.085938 C 172.867188 263.941406 173.042969 263.867188 173.25 263.867188 Z M 180.75 263.867188 L 185.25 263.867188 C 185.457031 263.867188 185.632812 263.941406 185.78125 264.085938 C 185.925781 264.234375 186 264.410156 186 264.617188 C 186 264.824219 185.925781 265 185.78125 265.148438 C 185.632812 265.292969 185.457031 265.367188 185.25 265.367188 L 180.75 265.367188 C 180.542969 265.367188 180.367188 265.292969 180.21875 265.148438 C 180.074219 265 180 264.824219 180 264.617188 C 180 264.410156 180.074219 264.234375 180.21875 264.085938 C 180.367188 263.941406 180.542969 263.867188 180.75 263.867188 Z M 188.25 263.867188 L 192.75 263.867188 C 192.957031 263.867188 193.132812 263.941406 193.28125 264.085938 C 193.425781 264.234375 193.5 264.410156 193.5 264.617188 C 193.5 264.824219 193.425781 265 193.28125 265.148438 C 193.132812 265.292969 192.957031 265.367188 192.75 265.367188 L 188.25 265.367188 C 188.042969 265.367188 187.867188 265.292969 187.71875 265.148438 C 187.574219 265 187.5 264.824219 187.5 264.617188 C 187.5 264.410156 187.574219 264.234375 187.71875 264.085938 C 187.867188 263.941406 188.042969 263.867188 188.25 263.867188 Z M 195.75 263.867188 L 200.25 263.867188 C 200.457031 263.867188 200.632812 263.941406 200.78125 264.085938 C 200.925781 264.234375 201 264.410156 201 264.617188 C 201 264.824219 200.925781 265 200.78125 265.148438 C 200.632812 265.292969 200.457031 265.367188 200.25 265.367188 L 195.75 265.367188 C 195.542969 265.367188 195.367188 265.292969 195.21875 265.148438 C 195.074219 265 195 264.824219 195 264.617188 C 195 264.410156 195.074219 264.234375 195.21875 264.085938 C 195.367188 263.941406 195.542969 263.867188 195.75 263.867188 Z M 203.25 263.867188 L 207.75 263.867188 C 207.957031 263.867188 208.132812 263.941406 208.28125 264.085938 C 208.425781 264.234375 208.5 264.410156 208.5 264.617188 C 208.5 264.824219 208.425781 265 208.28125 265.148438 C 208.132812 265.292969 207.957031 265.367188 207.75 265.367188 L 203.25 265.367188 C 203.042969 265.367188 202.867188 265.292969 202.71875 265.148438 C 202.574219 265 202.5 264.824219 202.5 264.617188 C 202.5 264.410156 202.574219 264.234375 202.71875 264.085938 C 202.867188 263.941406 203.042969 263.867188 203.25 263.867188 Z M 210.75 263.867188 L 215.25 263.867188 C 215.457031 263.867188 215.632812 263.941406 215.78125 264.085938 C 215.925781 264.234375 216 264.410156 216 264.617188 C 216 264.824219 215.925781 265 215.78125 265.148438 C 215.632812 265.292969 215.457031 265.367188 215.25 265.367188 L 210.75 265.367188 C 210.542969 265.367188 210.367188 265.292969 210.21875 265.148438 C 210.074219 265 210 264.824219 210 264.617188 C 210 264.410156 210.074219 264.234375 210.21875 264.085938 C 210.367188 263.941406 210.542969 263.867188 210.75 263.867188 Z M 218.25 263.867188 L 222.75 263.867188 C 222.957031 263.867188 223.132812 263.941406 223.28125 264.085938 C 223.425781 264.234375 223.5 264.410156 223.5 264.617188 C 223.5 264.824219 223.425781 265 223.28125 265.148438 C 223.132812 265.292969 222.957031 265.367188 222.75 265.367188 L 218.25 265.367188 C 218.042969 265.367188 217.867188 265.292969 217.71875 265.148438 C 217.574219 265 217.5 264.824219 217.5 264.617188 C 217.5 264.410156 217.574219 264.234375 217.71875 264.085938 C 217.867188 263.941406 218.042969 263.867188 218.25 263.867188 Z M 225.75 263.867188 L 230.25 263.867188 C 230.457031 263.867188 230.632812 263.941406 230.78125 264.085938 C 230.925781 264.234375 231 264.410156 231 264.617188 C 231 264.824219 230.925781 265 230.78125 265.148438 C 230.632812 265.292969 230.457031 265.367188 230.25 265.367188 L 225.75 265.367188 C 225.542969 265.367188 225.367188 265.292969 225.21875 265.148438 C 225.074219 265 225 264.824219 225 264.617188 C 225 264.410156 225.074219 264.234375 225.21875 264.085938 C 225.367188 263.941406 225.542969 263.867188 225.75 263.867188 Z M 233.25 263.867188 L 237.75 263.867188 C 237.957031 263.867188 238.132812 263.941406 238.28125 264.085938 C 238.425781 264.234375 238.5 264.410156 238.5 264.617188 C 238.5 264.824219 238.425781 265 238.28125 265.148438 C 238.132812 265.292969 237.957031 265.367188 237.75 265.367188 L 233.25 265.367188 C 233.042969 265.367188 232.867188 265.292969 232.71875 265.148438 C 232.574219 265 232.5 264.824219 232.5 264.617188 C 232.5 264.410156 232.574219 264.234375 232.71875 264.085938 C 232.867188 263.941406 233.042969 263.867188 233.25 263.867188 Z M 240.75 263.867188 L 245.25 263.867188 C 245.457031 263.867188 245.632812 263.941406 245.78125 264.085938 C 245.925781 264.234375 246 264.410156 246 264.617188 C 246 264.824219 245.925781 265 245.78125 265.148438 C 245.632812 265.292969 245.457031 265.367188 245.25 265.367188 L 240.75 265.367188 C 240.542969 265.367188 240.367188 265.292969 240.21875 265.148438 C 240.074219 265 240 264.824219 240 264.617188 C 240 264.410156 240.074219 264.234375 240.21875 264.085938 C 240.367188 263.941406 240.542969 263.867188 240.75 263.867188 Z M 240.75 263.867188 " fill-opacity="1" fill-rule="nonzero"/><g fill="#ffffff" fill-opacity="1"><g transform="translate(105.555502, 285.817335)"><g><path d="M 7.125 -2.109375 L 2.578125 -2.109375 L 1.671875 0 L -0.0625 0 L 4.03125 -9.09375 L 5.6875 -9.09375 L 9.796875 0 L 8.03125 0 Z M 6.5625 -3.4375 L 4.84375 -7.40625 L 3.140625 -3.4375 Z M 6.5625 -3.4375 "/></g></g></g><g fill="#ffffff" fill-opacity="1"><g transform="translate(117.122522, 285.817335)"><g><path d="M 9.578125 0 L 9.5625 -6.03125 L 6.578125 -1.046875 L 5.828125 -1.046875 L 2.828125 -5.953125 L 2.828125 0 L 1.21875 0 L 1.21875 -9.09375 L 2.609375 -9.09375 L 6.234375 -3.0625 L 9.78125 -9.09375 L 11.171875 -9.09375 L 11.1875 0 Z M 9.578125 0 "/></g></g></g><g fill="#ffffff" fill-opacity="1"><g transform="translate(131.366725, 285.817335)"><g><path d="M 7.125 -2.109375 L 2.578125 -2.109375 L 1.671875 0 L -0.0625 0 L 4.03125 -9.09375 L 5.6875 -9.09375 L 9.796875 0 L 8.03125 0 Z M 6.5625 -3.4375 L 4.84375 -7.40625 L 3.140625 -3.4375 Z M 6.5625 -3.4375 "/></g></g></g><g fill="#ffffff" fill-opacity="1"><g transform="translate(142.933746, 285.817335)"><g><path d="M 9.3125 -9.09375 L 9.3125 0 L 7.921875 0 L 2.90625 -6.15625 L 2.90625 0 L 1.21875 0 L 1.21875 -9.09375 L 2.609375 -9.09375 L 7.625 -2.9375 L 7.625 -9.09375 Z M 9.3125 -9.09375 "/></g></g></g><g fill="#ffffff" fill-opacity="1"><g transform="translate(155.29353, 285.817335)"><g><path d="M 1.21875 -9.09375 L 5.203125 -9.09375 C 6.171875 -9.09375 7.03125 -8.90625 7.78125 -8.53125 C 8.539062 -8.15625 9.128906 -7.625 9.546875 -6.9375 C 9.960938 -6.25 10.171875 -5.453125 10.171875 -4.546875 C 10.171875 -3.648438 9.960938 -2.851562 9.546875 -2.15625 C 9.128906 -1.46875 8.539062 -0.9375 7.78125 -0.5625 C 7.03125 -0.1875 6.171875 0 5.203125 0 L 1.21875 0 Z M 5.125 -1.4375 C 5.789062 -1.4375 6.375 -1.5625 6.875 -1.8125 C 7.382812 -2.070312 7.773438 -2.4375 8.046875 -2.90625 C 8.328125 -3.375 8.46875 -3.921875 8.46875 -4.546875 C 8.46875 -5.171875 8.328125 -5.71875 8.046875 -6.1875 C 7.773438 -6.664062 7.382812 -7.03125 6.875 -7.28125 C 6.375 -7.539062 5.789062 -7.671875 5.125 -7.671875 L 2.90625 -7.671875 L 2.90625 -1.4375 Z M 5.125 -1.4375 "/></g></g></g><g fill="#ffffff" fill-opacity="1"><g transform="translate(167.861242, 285.817335)"><g><path d="M 7.125 -2.109375 L 2.578125 -2.109375 L 1.671875 0 L -0.0625 0 L 4.03125 -9.09375 L 5.6875 -9.09375 L 9.796875 0 L 8.03125 0 Z M 6.5625 -3.4375 L 4.84375 -7.40625 L 3.140625 -3.4375 Z M 6.5625 -3.4375 "/></g></g></g><g fill="#ffffff" fill-opacity="1"><g transform="translate(179.42826, 285.817335)"><g/></g></g><g fill="#ffffff" fill-opacity="1"><g transform="translate(184.848164, 285.817335)"><g><path d="M 7.171875 0 L 5.3125 -2.671875 C 5.238281 -2.660156 5.125 -2.65625 4.96875 -2.65625 L 2.90625 -2.65625 L 2.90625 0 L 1.21875 0 L 1.21875 -9.09375 L 4.96875 -9.09375 C 5.757812 -9.09375 6.445312 -8.960938 7.03125 -8.703125 C 7.613281 -8.441406 8.0625 -8.066406 8.375 -7.578125 C 8.6875 -7.097656 8.84375 -6.523438 8.84375 -5.859375 C 8.84375 -5.179688 8.675781 -4.59375 8.34375 -4.09375 C 8.007812 -3.601562 7.53125 -3.234375 6.90625 -2.984375 L 9 0 Z M 7.140625 -5.859375 C 7.140625 -6.441406 6.945312 -6.890625 6.5625 -7.203125 C 6.1875 -7.515625 5.628906 -7.671875 4.890625 -7.671875 L 2.90625 -7.671875 L 2.90625 -4.046875 L 4.890625 -4.046875 C 5.628906 -4.046875 6.1875 -4.203125 6.5625 -4.515625 C 6.945312 -4.828125 7.140625 -5.273438 7.140625 -5.859375 Z M 7.140625 -5.859375 "/></g></g></g><g fill="#ffffff" fill-opacity="1"><g transform="translate(196.181253, 285.817335)"><g><path d="M 1.21875 -9.09375 L 2.90625 -9.09375 L 2.90625 0 L 1.21875 0 Z M 1.21875 -9.09375 "/></g></g></g><g fill="#ffffff" fill-opacity="1"><g transform="translate(202.159984, 285.817335)"><g><path d="M 5.4375 0.125 C 4.519531 0.125 3.6875 -0.0703125 2.9375 -0.46875 C 2.195312 -0.875 1.617188 -1.429688 1.203125 -2.140625 C 0.785156 -2.859375 0.578125 -3.660156 0.578125 -4.546875 C 0.578125 -5.441406 0.785156 -6.242188 1.203125 -6.953125 C 1.628906 -7.660156 2.210938 -8.21875 2.953125 -8.625 C 3.691406 -9.03125 4.523438 -9.234375 5.453125 -9.234375 C 6.191406 -9.234375 6.867188 -9.101562 7.484375 -8.84375 C 8.097656 -8.582031 8.617188 -8.203125 9.046875 -7.703125 L 7.953125 -6.6875 C 7.296875 -7.394531 6.488281 -7.75 5.53125 -7.75 C 4.90625 -7.75 4.34375 -7.609375 3.84375 -7.328125 C 3.351562 -7.054688 2.96875 -6.675781 2.6875 -6.1875 C 2.414062 -5.707031 2.28125 -5.160156 2.28125 -4.546875 C 2.28125 -3.929688 2.414062 -3.378906 2.6875 -2.890625 C 2.96875 -2.410156 3.351562 -2.035156 3.84375 -1.765625 C 4.34375 -1.492188 4.90625 -1.359375 5.53125 -1.359375 C 6.488281 -1.359375 7.296875 -1.71875 7.953125 -2.4375 L 9.046875 -1.390625 C 8.617188 -0.898438 8.09375 -0.523438 7.46875 -0.265625 C 6.851562 -0.00390625 6.175781 0.125 5.4375 0.125 Z M 5.4375 0.125 "/></g></g></g><g fill="#ffffff" fill-opacity="1"><g transform="translate(213.4411, 285.817335)"><g><path d="M 9.3125 -9.09375 L 9.3125 0 L 7.625 0 L 7.625 -3.90625 L 2.90625 -3.90625 L 2.90625 0 L 1.21875 0 L 1.21875 -9.09375 L 2.90625 -9.09375 L 2.90625 -5.34375 L 7.625 -5.34375 L 7.625 -9.09375 Z M 9.3125 -9.09375 "/></g></g></g><g fill="#ffffff" fill-opacity="1"><g transform="translate(225.80089, 285.817335)"><g><path d="M 7.125 -2.109375 L 2.578125 -2.109375 L 1.671875 0 L -0.0625 0 L 4.03125 -9.09375 L 5.6875 -9.09375 L 9.796875 0 L 8.03125 0 Z M 6.5625 -3.4375 L 4.84375 -7.40625 L 3.140625 -3.4375 Z M 6.5625 -3.4375 "/></g></g></g><g fill="#ffffff" fill-opacity="1"><g transform="translate(237.367913, 285.817335)"><g><path d="M 7.171875 0 L 5.3125 -2.671875 C 5.238281 -2.660156 5.125 -2.65625 4.96875 -2.65625 L 2.90625 -2.65625 L 2.90625 0 L 1.21875 0 L 1.21875 -9.09375 L 4.96875 -9.09375 C 5.757812 -9.09375 6.445312 -8.960938 7.03125 -8.703125 C 7.613281 -8.441406 8.0625 -8.066406 8.375 -7.578125 C 8.6875 -7.097656 8.84375 -6.523438 8.84375 -5.859375 C 8.84375 -5.179688 8.675781 -4.59375 8.34375 -4.09375 C 8.007812 -3.601562 7.53125 -3.234375 6.90625 -2.984375 L 9 0 Z M 7.140625 -5.859375 C 7.140625 -6.441406 6.945312 -6.890625 6.5625 -7.203125 C 6.1875 -7.515625 5.628906 -7.671875 4.890625 -7.671875 L 2.90625 -7.671875 L 2.90625 -4.046875 L 4.890625 -4.046875 C 5.628906 -4.046875 6.1875 -4.203125 6.5625 -4.515625 C 6.945312 -4.828125 7.140625 -5.273438 7.140625 -5.859375 Z M 7.140625 -5.859375 "/></g></g></g><g fill="#ffffff" fill-opacity="1"><g transform="translate(248.701008, 285.817335)"><g><path d="M 1.21875 -9.09375 L 5.203125 -9.09375 C 6.171875 -9.09375 7.03125 -8.90625 7.78125 -8.53125 C 8.539062 -8.15625 9.128906 -7.625 9.546875 -6.9375 C 9.960938 -6.25 10.171875 -5.453125 10.171875 -4.546875 C 10.171875 -3.648438 9.960938 -2.851562 9.546875 -2.15625 C 9.128906 -1.46875 8.539062 -0.9375 7.78125 -0.5625 C 7.03125 -0.1875 6.171875 0 5.203125 0 L 1.21875 0 Z M 5.125 -1.4375 C 5.789062 -1.4375 6.375 -1.5625 6.875 -1.8125 C 7.382812 -2.070312 7.773438 -2.4375 8.046875 -2.90625 C 8.328125 -3.375 8.46875 -3.921875 8.46875 -4.546875 C 8.46875 -5.171875 8.328125 -5.71875 8.046875 -6.1875 C 7.773438 -6.664062 7.382812 -7.03125 6.875 -7.28125 C 6.375 -7.539062 5.789062 -7.671875 5.125 -7.671875 L 2.90625 -7.671875 L 2.90625 -1.4375 Z M 5.125 -1.4375 "/></g></g></g><g fill="#ffffff" fill-opacity="1"><g transform="translate(261.268726, 285.817335)"><g><path d="M 4.046875 0.125 C 3.335938 0.125 2.65625 0.0234375 2 -0.171875 C 1.351562 -0.367188 0.835938 -0.632812 0.453125 -0.96875 L 1.046875 -2.28125 C 1.410156 -1.976562 1.863281 -1.734375 2.40625 -1.546875 C 2.945312 -1.367188 3.492188 -1.28125 4.046875 -1.28125 C 4.722656 -1.28125 5.226562 -1.382812 5.5625 -1.59375 C 5.894531 -1.8125 6.0625 -2.097656 6.0625 -2.453125 C 6.0625 -2.710938 5.96875 -2.925781 5.78125 -3.09375 C 5.59375 -3.269531 5.351562 -3.40625 5.0625 -3.5 C 4.78125 -3.59375 4.394531 -3.703125 3.90625 -3.828125 C 3.207031 -3.984375 2.644531 -4.144531 2.21875 -4.3125 C 1.789062 -4.476562 1.421875 -4.734375 1.109375 -5.078125 C 0.804688 -5.429688 0.65625 -5.910156 0.65625 -6.515625 C 0.65625 -7.015625 0.789062 -7.46875 1.0625 -7.875 C 1.332031 -8.289062 1.742188 -8.617188 2.296875 -8.859375 C 2.847656 -9.109375 3.519531 -9.234375 4.3125 -9.234375 C 4.863281 -9.234375 5.410156 -9.160156 5.953125 -9.015625 C 6.492188 -8.878906 6.957031 -8.679688 7.34375 -8.421875 L 6.8125 -7.109375 C 6.414062 -7.347656 6 -7.523438 5.5625 -7.640625 C 5.125 -7.765625 4.703125 -7.828125 4.296875 -7.828125 C 3.628906 -7.828125 3.132812 -7.710938 2.8125 -7.484375 C 2.488281 -7.265625 2.328125 -6.96875 2.328125 -6.59375 C 2.328125 -6.332031 2.421875 -6.117188 2.609375 -5.953125 C 2.796875 -5.785156 3.03125 -5.65625 3.3125 -5.5625 C 3.601562 -5.46875 3.992188 -5.359375 4.484375 -5.234375 C 5.160156 -5.078125 5.710938 -4.914062 6.140625 -4.75 C 6.578125 -4.582031 6.945312 -4.320312 7.25 -3.96875 C 7.5625 -3.625 7.71875 -3.160156 7.71875 -2.578125 C 7.71875 -2.066406 7.582031 -1.609375 7.3125 -1.203125 C 7.039062 -0.796875 6.625 -0.472656 6.0625 -0.234375 C 5.507812 0.00390625 4.835938 0.125 4.046875 0.125 Z M 4.046875 0.125 "/></g></g></g></svg>