<svg xmlns="http://www.w3.org/2000/svg" xmlns:xlink="http://www.w3.org/1999/xlink" width="300" zoomAndPan="magnify" viewBox="0 0 224.87999 149.999998" height="200" preserveAspectRatio="xMidYMid meet" version="1.0"><defs><g/><clipPath id="id1"><path d="M 0 0.0390625 L 224.761719 0.0390625 L 224.761719 149.960938 L 0 149.960938 Z M 0 0.0390625 " clip-rule="nonzero"/></clipPath></defs><g clip-path="url(#id1)"><path fill="#ffffff" d="M 0 0.0390625 L 224.878906 0.0390625 L 224.878906 157.457031 L 0 157.457031 Z M 0 0.0390625 " fill-opacity="1" fill-rule="nonzero"/><path fill="#000000" d="M 0 0.0390625 L 224.878906 0.0390625 L 224.878906 149.960938 L 0 149.960938 Z M 0 0.0390625 " fill-opacity="1" fill-rule="nonzero"/><path fill="#ffffff" d="M 0 0.0390625 L 224.878906 0.0390625 L 224.878906 149.960938 L 0 149.960938 Z M 0 0.0390625 " fill-opacity="1" fill-rule="nonzero"/><path fill="#000000" d="M 0 0.0390625 L 224.878906 0.0390625 L 224.878906 149.960938 L 0 149.960938 Z M 0 0.0390625 " fill-opacity="1" fill-rule="nonzero"/></g><g fill="#ffffff" fill-opacity="1"><g transform="translate(42.863158, 76.928555)"><g><path d="M 2.808594 3.507812 L 5.628906 3.507812 L 7.472656 -1.085938 L 15.375 -1.085938 L 15.855469 0.109375 L 20.4375 3.507812 L 24.058594 3.507812 L 15.925781 -16.074219 L 11.136719 -19.460938 L 7.707031 -19.460938 L -0.386719 0.0273438 Z M 0.125 -0.191406 L 7.957031 -19.078125 L 10.957031 -19.078125 L 18.789062 -0.191406 L 16.144531 -0.191406 L 14.300781 -4.789062 L 4.597656 -4.789062 L 2.738281 -0.191406 Z M 5.367188 -6.992188 L 13.53125 -6.992188 L 9.632812 -16.363281 L 9.277344 -16.363281 Z M 9.539062 -7.378906 L 11.257812 -11.464844 L 12.953125 -7.378906 Z M 9.539062 -7.378906 "/></g></g></g><g fill="#ffffff" fill-opacity="1"><g transform="translate(65.518217, 76.928555)"><g><path d="M 4.789062 3.507812 L 7.832031 3.507812 L 7.832031 -6.746094 L 10.5 0.0703125 L 12.953125 3.507812 L 15.675781 3.507812 L 19.378906 -5.960938 L 19.378906 0.0546875 L 22.820312 3.507812 L 25.847656 3.507812 L 25.847656 -16.035156 L 22.421875 -19.460938 L 17.617188 -19.460938 L 13.363281 -8.023438 L 10.28125 -16.0625 L 6.207031 -19.460938 L 1.363281 -19.460938 L 1.363281 0.0820312 Z M 1.746094 -0.191406 L 1.746094 -19.078125 L 5.988281 -19.078125 L 11.835938 -3.796875 L 12.195312 -3.796875 L 17.894531 -19.078125 L 22.144531 -19.078125 L 22.144531 -0.191406 L 19.765625 -0.191406 L 19.765625 -16.558594 L 19.394531 -16.625 L 18.195312 -13.28125 L 13.0625 -0.191406 L 10.804688 -0.191406 L 5.683594 -13.28125 L 4.515625 -16.515625 L 4.144531 -16.449219 L 4.144531 -0.191406 Z M 1.746094 -0.191406 "/></g></g></g><g fill="#ffffff" fill-opacity="1"><g transform="translate(92.742822, 76.928555)"><g><path d="M 2.808594 3.507812 L 5.628906 3.507812 L 7.472656 -1.085938 L 15.375 -1.085938 L 15.855469 0.109375 L 20.4375 3.507812 L 24.058594 3.507812 L 15.925781 -16.074219 L 11.136719 -19.460938 L 7.707031 -19.460938 L -0.386719 0.0273438 Z M 0.125 -0.191406 L 7.957031 -19.078125 L 10.957031 -19.078125 L 18.789062 -0.191406 L 16.144531 -0.191406 L 14.300781 -4.789062 L 4.597656 -4.789062 L 2.738281 -0.191406 Z M 5.367188 -6.992188 L 13.53125 -6.992188 L 9.632812 -16.363281 L 9.277344 -16.363281 Z M 9.539062 -7.378906 L 11.257812 -11.464844 L 12.953125 -7.378906 Z M 9.539062 -7.378906 "/></g></g></g><g fill="#ffffff" fill-opacity="1"><g transform="translate(115.39788, 76.928555)"><g><path d="M 4.789062 3.507812 L 7.804688 3.507812 L 7.804688 -9.511719 L 14.601562 0.136719 L 17.976562 3.507812 L 21.140625 3.507812 L 21.140625 -16.035156 L 17.714844 -19.460938 L 14.699219 -19.460938 L 14.714844 -10.0625 L 10.433594 -16.105469 L 4.417969 -19.460938 L 1.363281 -19.460938 L 1.363281 0.0820312 Z M 1.746094 -0.191406 L 1.746094 -19.078125 L 4.320312 -19.078125 L 14.753906 -4.308594 L 15.097656 -4.417969 L 15.085938 -19.078125 L 17.4375 -19.078125 L 17.4375 -0.191406 L 14.835938 -0.191406 L 4.445312 -14.917969 L 4.101562 -14.808594 L 4.101562 -0.191406 Z M 1.746094 -0.191406 "/></g></g></g><g fill="#ffffff" fill-opacity="1"><g transform="translate(137.915304, 76.928555)"><g><path d="M 4.789062 3.507812 L 10.679688 3.507812 C 16.695312 3.507812 20.894531 -0.507812 20.894531 -6.289062 C 20.894531 -9.261719 19.945312 -11.574219 17.878906 -13.640625 L 15.140625 -16.363281 C 13.296875 -18.304688 10.585938 -19.460938 7.363281 -19.460938 L 1.363281 -19.460938 L 1.363281 0.0820312 Z M 1.746094 -0.191406 L 1.746094 -19.078125 L 7.363281 -19.078125 C 13.128906 -19.078125 17.328125 -15.238281 17.328125 -9.605469 C 17.328125 -4.046875 13.253906 -0.191406 7.363281 -0.191406 Z M 4.183594 -2.4375 L 7.695312 -2.4375 C 12.03125 -2.4375 14.863281 -5.410156 14.863281 -9.605469 C 14.863281 -13.902344 11.863281 -16.765625 7.363281 -16.765625 L 4.183594 -16.765625 Z M 7.886719 -2.835938 L 7.886719 -13.199219 L 10.679688 -13.199219 C 12.167969 -13.199219 13.128906 -12.964844 13.96875 -12.386719 C 14.300781 -11.5625 14.480469 -10.625 14.480469 -9.605469 C 14.480469 -5.683594 11.890625 -3.054688 7.886719 -2.835938 Z M 7.886719 -2.835938 "/></g></g></g><g fill="#ffffff" fill-opacity="1"><g transform="translate(159.359163, 76.928555)"><g><path d="M 2.808594 3.507812 L 5.628906 3.507812 L 7.472656 -1.085938 L 15.375 -1.085938 L 15.855469 0.109375 L 20.4375 3.507812 L 24.058594 3.507812 L 15.925781 -16.074219 L 11.136719 -19.460938 L 7.707031 -19.460938 L -0.386719 0.0273438 Z M 0.125 -0.191406 L 7.957031 -19.078125 L 10.957031 -19.078125 L 18.789062 -0.191406 L 16.144531 -0.191406 L 14.300781 -4.789062 L 4.597656 -4.789062 L 2.738281 -0.191406 Z M 5.367188 -6.992188 L 13.53125 -6.992188 L 9.632812 -16.363281 L 9.277344 -16.363281 Z M 9.539062 -7.378906 L 11.257812 -11.464844 L 12.953125 -7.378906 Z M 9.539062 -7.378906 "/></g></g></g></svg>